<svg width="40" height="31" fill="#19AE82" xmlns="http://www.w3.org/2000/svg"><path d="M20.384 16.338l-2.524-.07.036-1.571 2.505.052-.017 1.589z"></path><path clip-rule="evenodd" d="M26.084 0c4.164 0 7.57 1.209 9.864 3.471 2.012 2.004 3.088 4.784 3.035 7.806-.052 2.591-1.27 5.043-3.423 6.909-2.047 1.761-4.712 2.763-7.341 2.763h-.177l-6.952-.121.017-1.434 6.953.121a8.716 8.716 0 006.124-2.366c1.658-1.571 2.594-3.661 2.629-5.906A8.162 8.162 0 0035.207 6.2l-.07.035a8.534 8.534 0 01.846 3.85c-.088 4.767-4.076 8.567-8.911 8.567h-.159l-6.617-.121-2.436-.052-4.27-.069h-.088c-2.77 0-5.047 2.176-5.1 4.905a4.983 4.983 0 001.147 3.247l.176.207-.106-.26a5.052 5.052 0 01-.388-2.037c.053-2.884 2.47-5.199 5.4-5.199h.106l2.294.035-.018 1.433-2.294-.034h-.07c-2.136 0-3.9 1.675-3.936 3.782-.017 1.036.3 1.813.936 2.332.6.483 1.464.742 2.594.76 1.023.017 1.923-.432 2.594-1.244.617-.743.97-1.796.988-2.85l.07-4.144 2.348.051-.07 4.145c-.036 1.97-.671 3.765-1.783 5.043C16.978 30.188 14.913 31 12.196 31c-4.024 0-7.13-1.088-9.247-3.195-1.959-1.951-3-4.836-2.947-8.082.053-2.625 1.147-5.078 3.088-6.908a10.162 10.162 0 016.988-2.764h.194l6.953.121-.018 1.434-6.952-.121A8.716 8.716 0 004.13 13.85c-1.659 1.571-2.594 3.661-2.63 5.906A8.161 8.161 0 003.109 24.8l.07-.035a8.535 8.535 0 01-.847-3.85C2.367 18.6 3.337 16.423 5.05 14.8a8.923 8.923 0 016.176-2.453h.159l6.617.121 2.436.052 4.27.069h.088c2.771 0 5.047-2.176 5.1-4.905a4.983 4.983 0 00-1.147-3.247l-.176-.207.106.26c.264.638.388 1.33.37 2.037-.053 2.884-2.47 5.199-5.4 5.199h-.105l-2.294-.035.017-1.434 2.294.035a3.904 3.904 0 002.806-1.07 3.759 3.759 0 001.2-2.695c.018-1.036-.3-1.813-.935-2.331-.6-.484-1.465-.743-2.594-.76h-.053c-.989 0-1.889.449-2.541 1.243-.618.743-.971 1.796-.989 2.85l-.07 4.145-2.347-.052.07-4.145c.018-1.45.353-3.506 1.747-5.112C21.214.794 23.314 0 26.084 0zm.988 17.218c4.041 0 7.359-3.177 7.447-7.201.035-1.606-.477-3.143-1.447-4.439l-.247-.31.158.362a7.368 7.368 0 01.689 3.247 7.468 7.468 0 01-2.365 5.32 7.793 7.793 0 01-5.364 2.123H25.8l-4.623-.086.018-1.433 4.623.086h.106a6.337 6.337 0 004.34-1.727 6.002 6.002 0 001.924-4.3 5.968 5.968 0 00-1.305-3.852l-.212-.259.141.311c.37.83.547 1.727.53 2.643a6.316 6.316 0 01-2.012 4.507 6.555 6.555 0 01-4.553 1.813h-.124l-4.27-.069h-.035v.018L18 13.92l-6.652-.121h-.141c-4.042 0-7.36 3.178-7.43 7.15a6.993 6.993 0 001.447 4.438l.23.311-.16-.363a7.368 7.368 0 01-.687-3.246c.07-4.128 3.529-7.444 7.729-7.444h.141l4.606.121-.018 1.433-4.623-.086h-.106c-3.406 0-6.212 2.677-6.265 6.027a6 6 0 001.306 3.852l.212.259-.141-.311a6.162 6.162 0 01-.53-2.643 6.315 6.315 0 012.012-4.507 6.554 6.554 0 014.553-1.813h.123l4.271.069 2.435.052 6.618.12h.14z"></path><path d="M65.117 15.806v9.499h-2.806v-9.331c0-3.546-1.676-5.42-4.722-5.42-3.286 0-5.271 2.374-5.271 6.222v8.529h-2.812V8.247h2.43l.376 2.307c1.028-1.305 2.806-2.51 5.75-2.51 3.938 0 7.053 2.108 7.053 7.76l.002.002zM67.204 16.779c0-5.185 3.561-8.732 8.66-8.732 5.1 0 8.661 3.547 8.661 8.732 0 5.185-3.561 8.731-8.66 8.731-5.1 0-8.661-3.546-8.661-8.731zm14.447 0c0-3.645-2.329-6.288-5.787-6.288-3.457 0-5.786 2.643-5.786 6.288 0 3.645 2.329 6.288 5.786 6.288 3.458 0 5.787-2.643 5.787-6.288zM100.649 1.893h2.806v23.415h-2.429l-.377-2.742c-1.164 1.572-3.046 2.944-5.99 2.944-4.828 0-8.389-3.179-8.389-8.731 0-5.217 3.562-8.732 8.388-8.732 2.945 0 4.93 1.17 5.991 2.811V1.893zm.036 14.952c0-3.746-2.33-6.354-5.751-6.354-3.422 0-5.787 2.576-5.787 6.288 0 3.711 2.329 6.288 5.787 6.288 3.457 0 5.751-2.577 5.751-6.222zM106.264 1.893h2.806v23.415h-2.806V1.893zM111.431 16.779c0-5.185 3.354-8.732 8.285-8.732 4.93 0 8.148 3.043 8.284 8.095 0 .367-.036.77-.068 1.17h-13.556v.234c.104 3.245 2.19 5.518 5.511 5.518 2.466 0 4.383-1.271 4.963-3.48h2.842c-.685 3.41-3.562 5.92-7.6 5.92-5.239 0-8.661-3.511-8.661-8.731v.006zm13.556-1.74c-.273-2.944-2.329-4.583-5.239-4.583-2.569 0-4.93 1.806-5.203 4.583h10.442z"></path></svg>